<svg version="1.2" xmlns="http://www.w3.org/2000/svg" xmlns:xlink="http://www.w3.org/1999/xlink" overflow="visible" preserveAspectRatio="none" viewBox="0 0 514 514" xml:space="preserve" y="0px" x="0px" id="Capa_1_1584744876944" width="54" height="54"><g transform="translate(1, 1)"><path d="M80,504c-39.7,0-72-32.3-72-72V120c0-39.7,32.3-72,72-72h33V20c0-6.6,5.4-12,12-12s12,5.4,12,12v28h106V20  c0-6.6,5.4-12,12-12c6.6,0,12,5.4,12,12v28h107V20c0-6.6,5.4-12,12-12s12,5.4,12,12v28h34c39.7,0,72,32.3,72,72v212  c0,6.6-5.4,12-12,12s-12-5.4-12-12V120c0-26.5-21.5-48-48-48h-34v28c0,6.6-5.4,12-12,12s-12-5.4-12-12V72H267v28c0,6.6-5.4,12-12,12  c-6.6,0-12-5.4-12-12V72H137v28c0,6.6-5.4,12-12,12s-12-5.4-12-12V72H80c-26.5,0-48,21.5-48,48v312c0,26.5,21.5,48,48,48h352  c26.5,0,48-21.5,48-48c0-6.6,5.4-12,12-12s12,5.4,12,12c0,39.7-32.3,72-72,72H80z" vector-effect="non-scaling-stroke" style="fill: rgb(255, 255, 255);"/><circle r="12" cy="210" cx="125" vector-effect="non-scaling-stroke" style="fill: rgb(255, 255, 255);"/><circle r="12" cy="210" cx="299" vector-effect="non-scaling-stroke" style="fill: rgb(255, 255, 255);"/><circle r="12" cy="210" cx="386" vector-effect="non-scaling-stroke" style="fill: rgb(255, 255, 255);"/><circle r="12" cy="297" cx="125" vector-effect="non-scaling-stroke" style="fill: rgb(255, 255, 255);"/><circle r="12" cy="384" cx="125" vector-effect="non-scaling-stroke" style="fill: rgb(255, 255, 255);"/><circle r="12" cy="210" cx="212" vector-effect="non-scaling-stroke" style="fill: rgb(255, 255, 255);"/><circle r="12" cy="297" cx="212" vector-effect="non-scaling-stroke" style="fill: rgb(255, 255, 255);"/><circle r="12" cy="384" cx="212" vector-effect="non-scaling-stroke" style="fill: rgb(255, 255, 255);"/><circle r="12" cy="297" cx="299" vector-effect="non-scaling-stroke" style="fill: rgb(255, 255, 255);"/><circle r="12" cy="297" cx="386" vector-effect="non-scaling-stroke" style="fill: rgb(255, 255, 255);"/><circle r="12" cy="384" cx="299" vector-effect="non-scaling-stroke" style="fill: rgb(255, 255, 255);"/></g></svg>