<svg xmlns="http://www.w3.org/2000/svg" viewBox="0 0 43.24 64.51"><defs><style>.cls-1{fill:#fff;}</style></defs><title>icone-reader</title><g id="Camada_2" data-name="Camada 2"><g id="Camada_1-2" data-name="Camada 1"><g id="Camada_2-2" data-name="Camada 2"><g id="Camada_1-2-2" data-name="Camada 1-2"><path class="cls-1" d="M14.94,12H34.72a.75.75,0,0,0,0-1.5H14.94a.75.75,0,1,0,0,1.5Z"/><path class="cls-1" d="M8.22,12h3.26a.75.75,0,0,0,0-1.5H8.22a.75.75,0,0,0,0,1.5Z"/><path class="cls-1" d="M8.22,18.17H28a.75.75,0,0,0,0-1.5H8.22a.75.75,0,0,0,0,1.5Z"/><path class="cls-1" d="M34.72,16.67H31.46a.75.75,0,0,0,0,1.5h3.26a.75.75,0,0,0,0-1.5Z"/><path class="cls-1" d="M8.22,24.38h3.26a.75.75,0,0,0,0-1.5H8.22a.75.75,0,0,0,0,1.5Z"/><path class="cls-1" d="M34.72,22.88H14.94a.75.75,0,0,0,0,1.5H34.72a.75.75,0,0,0,0-1.5Z"/><path class="cls-1" d="M8.22,30.58H28a.75.75,0,0,0,0-1.5H8.22a.75.75,0,0,0,0,1.5Z"/><path class="cls-1" d="M34.72,29.08H31.46a.75.75,0,0,0,0,1.5h3.26a.75.75,0,0,0,0-1.5Z"/><path class="cls-1" d="M8.22,36.78h3.26a.75.75,0,1,0,0-1.5H8.22a.75.75,0,0,0,0,1.5Z"/><path class="cls-1" d="M34.72,35.28H14.94a.75.75,0,1,0,0,1.5H34.72a.75.75,0,0,0,0-1.5Z"/><path class="cls-1" d="M8.22,43H28a.75.75,0,0,0,0-1.5H8.22a.75.75,0,0,0,0,1.5Z"/><path class="cls-1" d="M34.72,41.49H31.46a.75.75,0,0,0,0,1.5h3.26a.75.75,0,0,0,0-1.5Z"/><path class="cls-1" d="M8.22,54.67H28a.75.75,0,0,0,0-1.5H8.22a.75.75,0,0,0,0,1.5Z"/><path class="cls-1" d="M34.72,53.16H31.46a.75.75,0,0,0,0,1.5h3.26a.75.75,0,0,0,0-1.5Z"/><path class="cls-1" d="M8.22,49.19h3.26a.75.75,0,1,0,0-1.5H8.22a.75.75,0,0,0,0,1.5Z"/><path class="cls-1" d="M34.72,47.69H14.94a.75.75,0,1,0,0,1.5H34.72a.75.75,0,0,0,0-1.5Z"/><path class="cls-1" d="M37.35,0H5.89A5.86,5.86,0,0,0,0,5.81V58.7a5.86,5.86,0,0,0,5.89,5.81H37.35a5.86,5.86,0,0,0,5.89-5.81V5.81A5.86,5.86,0,0,0,37.35,0ZM17.2,2.82h8.85a.75.75,0,0,1,0,1.5H17.2a.75.75,0,1,1,0-1.5Zm4.42,60.34A1.41,1.41,0,1,1,23,61.75,1.41,1.41,0,0,1,21.62,63.16Zm18.2-4H3.42V6.52h36.4Z"/></g></g></g></g></svg>