<?xml version="1.0" encoding="utf-8"?>
<!-- Generator: Adobe Illustrator 22.0.1, SVG Export Plug-In . SVG Version: 6.00 Build 0)  -->
<svg version="1.1" id="Capa_1" xmlns="http://www.w3.org/2000/svg" xmlns:xlink="http://www.w3.org/1999/xlink" x="0px" y="0px"
	 viewBox="0 0 512 512" style="enable-background:new 0 0 512 512;" xml:space="preserve">
<style type="text/css">
	.st0{fill:#FFFFFF;}
</style>
<path class="st0" d="M190.3,445.3c-6.2,0-11.7-4.2-13.2-10.3l-46.6-184.2l-15.9,42.5c-2,5.3-7.1,8.8-12.8,8.8H18.6
	C11.1,302.1,5,296,5,288.5c0-7.5,6.1-13.6,13.6-13.6h73.8l27.9-74.4c2-5.4,7.1-8.8,13-8.8c0.2,0,0.4,0,0.6,0
	c5.9,0.3,10.9,4.5,12.4,10.3L183,347.2l9.8-0.3l51.8-269.1c1.2-6.3,6.5-10.8,12.9-11c0.2,0,0.4,0,0.6,0c6.1,0,11.4,4.1,13,10.1
	l47.1,175.4l39.2-91.4c2.2-5,7.1-8.2,12.6-8.2l0.3,0c5.6,0.1,10.5,3.6,12.4,8.9L421,264.3h72.4c7.5,0,13.6,6.1,13.6,13.6
	s-6.1,13.6-13.6,13.6h-81.9c-5.7,0-10.8-3.6-12.8-8.9L369,202.8l-41.2,96.2c-2.1,4.9-7.2,8.2-12.6,8.2c-0.3,0-0.6,0-0.9,0
	c-5.8-0.4-10.7-4.5-12.2-10.1L265.8,162l-9.7,0.4l-52.4,271.8c-1.2,6.3-6.6,10.9-13,11C190.6,445.3,190.5,445.3,190.3,445.3
	C190.4,445.3,190.4,445.3,190.3,445.3z"/>
</svg>
