<?xml version="1.0" encoding="utf-8"?>
<!-- Generator: Adobe Illustrator 22.0.1, SVG Export Plug-In . SVG Version: 6.00 Build 0)  -->
<svg version="1.1" id="Camada_1" xmlns="http://www.w3.org/2000/svg" xmlns:xlink="http://www.w3.org/1999/xlink" x="0px" y="0px"
	 viewBox="0 0 525.2 643" style="enable-background:new 0 0 525.2 643;" xml:space="preserve">
<style type="text/css">
	.st0{fill:#FFFFFF;}
</style>
<path class="st0" d="M504,86.8c-9.9-23.4-26.4-43.3-47.2-57.3c-20.8-14.1-45.9-22.3-72.9-22.3c-18,0-35.1,3.6-50.7,10.2
	c-23.4,9.9-43.3,26.4-57.3,47.2c-5.1,7.6-9.5,15.8-12.9,24.4c-0.4,0.4-0.8,0.9-1.1,1.5l-78.3,144.3c-2.4,4.1-1,9.5,3.2,11.8v0
	c4.1,2.4,9.5,1,11.8-3.2l55.2-101.2c0.6,16.2,4.1,31.7,10.1,46c9.9,23.4,26.4,43.3,47.2,57.3c13.4,9.1,28.6,15.7,44.9,19.2
	l-105.7,31.9c-4.6,1.2-7.4,6-6.1,10.6c1.2,4.6,6,7.4,10.6,6.1L420,263.7c1.4-0.4,2.6-1.1,3.6-2c3.7-1.2,7.4-2.6,11-4.1
	c23.4-9.9,43.3-26.4,57.3-47.2c14.1-20.8,22.3-45.9,22.3-72.9C514.2,119.6,510.6,102.4,504,86.8z M488,181.5
	c-8.6,20.3-22.9,37.5-40.9,49.7c-18,12.2-39.7,19.3-63.2,19.3c-15.6,0-30.5-3.2-44-8.9c-20.3-8.6-37.5-22.9-49.7-40.9
	c-12.2-18-19.3-39.7-19.3-63.2c0-15.6,3.2-30.5,8.9-44c8.6-20.3,22.9-37.5,40.9-49.7c18-12.2,39.7-19.3,63.2-19.3
	c15.6,0,30.5,3.2,44,8.9c20.3,8.6,37.5,22.9,49.7,40.9c12.2,18,19.3,39.7,19.3,63.2C496.9,153.2,493.7,168,488,181.5z"/>
<path class="st0" d="M304.2,315.2V536h-272V216h142.2l8.5-16H32.2v-24c0-13.3,10.7-24,24-24h152.1l8.5-16H56.2
	c-22.1,0-40,17.9-40,40v416c0,22.1,17.9,40,40,40h224c22.1,0,40-17.9,40-40V310.5L304.2,315.2z M304.2,592c0,13.3-10.7,24-24,24
	h-224c-13.3,0-24-10.7-24-24v-40h272V592z"/>
<path class="st0" d="M405.5,162.7c5-3.5,9.5-8,13.6-13.4c7.8-10.6,12.9-23.9,14.7-38.3c0.6-0.6,1.1-1.3,1.5-2.1
	c3.3-7.8,4.9-16,4.9-24.6c0-10.6-2.6-20.5-7.1-29.1c-7.1-4.3-14.9-7.6-23.1-10c11.1,8.7,18.4,23,18.4,39.1c0,0.8,0,1.6-0.1,2.4
	c-4.7-4.7-11.1-7.7-18.3-7.7h-40c-2.4,0-4.6-0.7-6.5-2.2c-1.6-1.2-2.9-2.8-3.6-4.7c-1.2-2.9-4-4.7-7.1-4.5c-3.1,0.2-5.7,2.4-6.5,5.4
	c-2.3,8.9-6.9,17.1-13.3,23.8c-4.4-18.2,0.4-36.3,11.2-46.6c-7.8,3.6-15.1,8.1-21.6,13.6c-3.7,11.4-4,24.2-0.9,36.5
	c0.8,3.1,1.8,6.1,3,9c0.3,0.8,0.8,1.5,1.4,2c2.9,22.5,13.6,41.1,28.2,51.3c-4.5,32.2-34.5,31.4-34.7,31.4c-4,0.1-7.9,0.9-11.6,2.1
	c2.7,3.5,5.6,6.8,8.8,9.9c1.4-0.2,2.8-0.3,4.2-0.3c0.2,0,9.7-0.2,17.1-3.6l19.5,27.7c5.4,1.5,10.9,2.6,16.6,3.2l-25.9-36.9
	c8.7-6.7,14.9-16.5,17.1-27.7c4.7,1.7,9.6,2.6,14.6,2.6c5,0,9.9-0.9,14.6-2.6c2.2,11.2,8.4,21,17.1,27.7l-26.2,37.4
	c5.2-0.1,10.4-0.6,15.4-1.4l21-29.9c8.5,3.6,16.9,3.6,17.1,3.6c3.7,0,7.3,0.7,10.5,2c3-2.8,5.8-5.8,8.5-9
	c-5.3-2.8-11.3-4.5-17.6-4.7C440,194,409.9,194.9,405.5,162.7z M379.8,159.2c-10.3,0-20.3-5.3-28.1-14.8c-7.6-9.3-12.7-22-14.2-35.8
	c7.4-6.6,13.3-14.8,17.1-24c0.6,0.5,1.2,1,1.8,1.5c3.9,2.9,8.6,4.5,13.6,4.5h40c5.7,0,10.6,3.4,12.7,8.3c0,0,0,0.1,0,0.1
	C422.7,132.2,403.5,159.2,379.8,159.2z"/>
<circle class="st0" cx="227.6" cy="312.1" r="7.9"/>
<circle class="st0" cx="205.8" cy="318.6" r="5.6"/>
<circle class="st0" cx="177.4" cy="259.5" r="7.9"/>
<circle class="st0" cx="163.8" cy="277.7" r="5.6"/>
</svg>
