<svg xmlns="http://www.w3.org/2000/svg" viewBox="0 0 471.35 181.73"><defs><style>.cls-1{fill:#fff;}</style></defs><title>medeletro-negativo</title><g id="Camada_2" data-name="Camada 2"><g id="Camada_1-2" data-name="Camada 1"><path class="cls-1" d="M230.87,54.92h-7.46l-2.69,7.39h7.47Zm-7.8,21.43H215.6l-11.26,31h7.46ZM227,65.64h-7.47L216.82,73h7.47Zm45.2,0H230.25l-2.7,7.4h41.94Zm-38-10.71-2.69,7.39h31.09l2.69-7.39Zm-2.06-3.32L247.32,9.73h-7.47L224.61,51.6Zm14.54-30.95-11.27,31h41.94L280,44.21H245.51l8.57-23.56Zm-49.53,97.58,15.24-41.88h-7.46l-15.25,41.88ZM174.4,65.64,171.71,73h31.1l2.68-7.39Zm45.73-10.72h-7.47L210,62.31h7.46ZM206.08,73h7.46l2.69-7.39h-7.47Zm-23.22,34.28h7.47l11.26-31H159.66L157,83.74h34.47Zm-47.58,22.12H116.47V181h18.81c10.57,0,18.81-2.25,24.25-7.69,4.12-4.12,6.53-10.11,6.53-18s-2.41-14-6.53-18.11C154.09,131.68,145.85,129.43,135.28,129.43ZM147.87,166c-2.8,2.48-7,3.11-13,3.11h-4.58V141.32h4.58c6,0,10.18.62,13,3.11,2.41,2.1,3.81,5.52,3.81,10.8S150.28,163.86,147.87,166Zm63.87-5.44,4.06-11.2H193.5l3-8.47h24.87l4.2-11.42H186.94L168.2,181h39.32l4.19-11.42H186.14l3.3-9ZM395,129.43H278.16l-14.59,40.1H232.92l14.55-40.1H233.72L215,181h83.77l4.2-11.42H277.36l3.3-9H303l4.06-11.2h-22.3l3-8.47h45.77L318.94,181h13.75l14.56-40.1h22L354.68,181h13.75l5.92-16.24h7.54c1.4,0,1.59.16,1.87,1.55l2.72,13.38c.2,1.08.76,1.31,2,1.31h12.6l-4.2-18.11c7.28-4.35,12.4-10.33,14.22-17.79,1.13-4.59.64-8.31-1.3-10.88C407.08,130.67,402.1,129.43,395,129.43Zm2.09,16.86a14.11,14.11,0,0,1-3.45,6.14,3.82,3.82,0,0,1-3.12,1.32h-12.2L383,141h9C396.94,141,398,142.56,397.05,146.29Zm20-69.8s-1.54.15-2.07-.56c-.59-1.05-1.51-2.85-2.29-4.37-7-13.61-11.1-20.22-15.75-20.93l-1-.15c-4-.62-8.09-1.26-12.83-.6-5.64.78-25,18.33-36.58,26.6H331.2L321.72,0l-33.6,92.93L282,76.35H226.34L211.1,118.23h7.46l12.56-34.49h23.62v0h22.6l10.79,29.51,30.22-83.09,6.87,53.7h11.44v0H349l1-.68c17-12.16,30.89-25.22,34.29-26,3.66-.51,6.92,0,10.69.58l.76.12c2.61,1.51,8.37,12.78,10.56,17a48.21,48.21,0,0,0,3.48,6.29c.69.9,1.45,2,5.21,2.63l53.78-.06,2.67-7.33Zm30.58,52.16c-14.92,0-30.94,12.13-35.07,29-3.39,13.84,4.44,24.09,18,24.09,14.92,0,30.94-12.12,35.07-29C469.1,138.91,461.27,128.65,447.67,128.65Zm3.51,25c-2.07,8.46-9.11,14.69-16.34,14.69-6.21,0-9.39-4.82-7.71-11.66,2.07-8.47,9.11-14.69,16.34-14.69C449.68,142,452.86,146.84,451.18,153.68ZM209.39,54.92H167.46l-2.7,7.4H206.7ZM225.85,9.73h-7.47L205.83,44.21H182.2l-2.69,7.39H210.6Zm-12,41.87h7.46l11.27-30.95h-7.47Zm-133,108.92h23.86v-11.2H80.89v-8.47h26.19V129.43h-40V181h40.73V169.53H80.89ZM44.22,130.75,29.3,149.48h-.23l-15-18.73a2.79,2.79,0,0,0-2.88-1.32H0V181H13.21V149.17h.08l10,12.59a2.47,2.47,0,0,0,2.33,1h7.69l11-13.6h.08V181H57.59V129.43H47.1C45.54,129.43,45.15,129.58,44.22,130.75Z"/></g></g></svg>