<svg xmlns="http://www.w3.org/2000/svg" viewBox="0 0 304 496"><defs><style>.cls-1{fill:#fff;}</style></defs><title>o-escritor-2</title><g id="Camada_2" data-name="Camada 2"><g id="Camada_1-2" data-name="Camada 1"><path class="cls-1" d="M264,0H40A40.05,40.05,0,0,0,0,40V456a40.05,40.05,0,0,0,40,40H264a40.05,40.05,0,0,0,40-40V40A40.05,40.05,0,0,0,264,0ZM16,80H288V400H16Zm0-40A24,24,0,0,1,40,16H264a24,24,0,0,1,24,24V64H16ZM288,456a24,24,0,0,1-24,24H40a24,24,0,0,1-24-24V416H288Z"/><path class="cls-1" d="M184,32H112a8,8,0,0,0,0,16h72a8,8,0,0,0,0-16Z"/><path class="cls-1" d="M216,32h-8a8,8,0,0,0,0,16h8a8,8,0,0,0,0-16Z"/><path class="cls-1" d="M152,472a24,24,0,1,0-24-24,24,24,0,0,0,24,24Zm0-32a8,8,0,1,1-8,8,8,8,0,0,1,8-8Z"/><rect class="cls-1" x="50.26" y="317.26" width="201.47" height="11" rx="4" ry="4"/><rect class="cls-1" x="50.26" y="125.26" width="201.47" height="11" rx="4" ry="4"/><rect class="cls-1" x="50.26" y="343.26" width="201.47" height="11" rx="4" ry="4"/><path class="cls-1" d="M245.74,160.3H56.26a6,6,0,0,0-6,6V291a6,6,0,0,0,6,6H245.74a6,6,0,0,0,6-6V166.3A6,6,0,0,0,245.74,160.3Zm-71.3,74.27-20,11.55-20,11.55a6.86,6.86,0,0,1-10.3-6v-46.2a6.87,6.87,0,0,1,10.3-6l20,11.55,20,11.55A6.87,6.87,0,0,1,174.44,234.57Z"/></g></g></svg>